<svg xmlns="http://www.w3.org/2000/svg" xmlns:xlink="http://www.w3.org/1999/xlink" fill="none" version="1.1" width="376" height="376" viewBox="0 0 376 376"><defs><clipPath id="master_svg0_7_1222"><rect x="0" y="0" width="376" height="376" rx="0"/></clipPath></defs><g clip-path="url(#master_svg0_7_1222)"><path d="M264.28786,17.000015258789062C304.42053,17.000015258789062,336.96228,48.76137525878906,336.96228,87.94341325878906L336.96228,266.5434152587891C336.96228,269.77842525878907,334.33737,272.39623525878903,331.10944,272.39623525878903C314.27457,272.39623525878903,296.99277,286.58494525878905,296.99277,307.8679352587891C296.99277,330.51307525878906,314.27457,343.33964525878906,331.10944,343.33964525878906C334.34445,343.33964525878906,336.96228,345.9645252587891,336.96228,349.19245525878904L336.96228,350.4339752587891C336.96225,354.3520652587891,333.78604,357.52833525878907,329.86795,357.5283052587891L97.138115,357.5283052587891C65.036224,357.52833525878907,39,332.11637525878905,39,300.7736052587891L39,87.94341325878906C39,48.76137525878906,71.541733,17.000015258789062,111.674408,17.000015258789062L264.28786,17.000015258789062ZM91.469742,279.49058525878905C74.244678,279.49058525878905,60.28302,292.1894652587891,60.28302,307.8679352587891C60.28302,323.5464352587891,74.244682,336.24528525878907,91.469734,336.24528525878907L287.3019,336.24528525878907C280.02499,328.5869552587891,275.95799,318.43214525878903,275.93677,307.8679352587891C275.93677,296.96394525878907,280.23593,287.02476525878905,287.3019,279.49058525878905L91.469742,279.49058525878905Z" fill="#64EDAC" fill-opacity="1" style="mix-blend-mode:passthrough"/><g><path d="M156.7650393125,201.717041015625Q150.5119153125,201.717041015625,147.2048833125,198.410001015625Q143.8978523125,195.102981015625,143.8978523125,188.849851015625L143.8978523125,103.434227015625Q143.8978523125,97.178757015625,147.2048833125,93.874069015625Q150.5119153125,90.567039015625,156.7650393125,90.567039015625L163.99785231250002,90.567039015625L163.99785231250002,201.717041015625L156.7650393125,201.717041015625ZM160.5337903125,182.217041015625L181.24785231250002,182.217041015625Q192.6478543125,182.217041015625,200.2228543125,177.717041015625Q207.7978513125,173.217041015625,211.4728543125,165.117031015625Q215.14785731249998,157.017044015625,215.14785731249998,146.184227015625Q215.14785731249998,135.117035015625,211.5478513125,127.017036015625Q207.9478533125,118.917038015625,200.3728563125,114.49203501562499Q192.7978553125,110.067039015625,181.24785231250002,110.067039015625L160.5337903125,110.067039015625L160.5337903125,90.567039015625L181.24785231250002,90.567039015625Q198.1978533125,90.567039015625,210.4228513125,98.21703301562499Q222.64785731249998,105.86703501562499,228.9478533125,118.645164015625Q235.2478603125,131.420944015625,235.2478603125,146.217041015625Q235.2478603125,160.71313101562498,228.9478533125,173.491261015625Q222.64785731249998,186.267041015625,210.4228513125,193.992031015625Q198.1978533125,201.717041015625,181.24785231250002,201.717041015625L160.5337903125,201.717041015625L160.5337903125,182.217041015625Z" fill="#333C50" fill-opacity="1"/></g></g></svg>